<svg id="Layer_1" data-name="Layer 1" xmlns="http://www.w3.org/2000/svg" viewBox="0 0 1006.56 348.5"><defs><style>.cls-1{fill:#fff;}</style></defs><title>upf_wh</title><path class="cls-1" d="M133.7,199.8h-.5c-6.7,0-9.1-2.9-9.1-9.8l.2-56c0-2.1-.5-3.3-2.8-3.3-.6,0-2,.2-4.2.4-4.9.6-14,1.4-24.8,1.7H92v7h.5c5.7,0,9.5,1.6,9.5,8.2l-.2,16.3c0,27-10.8,32.2-18.7,32.2-6.5,0-8.9-6.7-8.9-12.3l.3-50.3c0-2.1-.5-3.3-2.8-3.3-.6,0-2,.2-4.2.4-4.9.6-12.9,1.4-23.7,1.7h-.5v7h.5c5.7,0,9.5,1.6,9.5,8.2L53.1,182c0,22.1,11.4,26.7,21,26.7,14.3,0,22.5-9.3,26.9-14.3,1.2-1.4,2.5-2.8,2.9-2.8.2,0,.9,0,.9,1v13.7a2,2,0,0,0,2.2,2.3c.6,0,2-.2,4.1-.5a174.11,174.11,0,0,1,22.1-1.4h.5Z"/><path class="cls-1" d="M285,133.7H267.2l1.5-11.5c2.2-15.7,5-22.4,9.5-22.4,1.8,0,2.9.9,2.9,2.4a4.92,4.92,0,0,1-.3,2,7,7,0,0,0-.3,2.4c0,2.6,1.6,5.6,6.2,5.6,5.6,0,8-4.3,8-8.5,0-7-5-11-13.8-11-19.5,0-24.7,27.3-27.3,40.9H237.9l-1.4,7h16.1l-1,6.8c-.7,4.6-1.4,9.1-2.1,13.7l-1.2,7.8c-6.8,45.2-10.3,65.3-17.8,65.3-.8,0-1-.3-1-1.2a7.38,7.38,0,0,1,.2-1.2,8.88,8.88,0,0,0,.4-2.6c0-3.1-2.3-5.3-5.6-5.3-4.9,0-7.1,3.5-7.1,6.8,0,6.1,4.4,10.4,10.8,10.4,11.4,0,25.5-13.2,38.1-100.7h17.4Z"/><path class="cls-1" d="M292.1,190.1a9.1,9.1,0,1,0,9.2,9.1,9.29,9.29,0,0,0-9.2-9.1"/><path class="cls-1" d="M18.7,18.7h311v311H18.7V18.7ZM0,348.5H348.5V0H0Z"/><path class="cls-1" d="M186.6,199c-9.9,0-13.5-10.1-13.5-18.7,0-16.7,7.9-39.8,22.9-39.8,11.9,0,14.4,10.1,14.4,18.6,0,12.5-6,39.9-23.8,39.9m13.6-68.2c-14,0-21.6,9.7-24.8,14.4-.2-9.3-3.6-13.6-10.8-13.6-11.6,0-18.4,15.8-22.1,24.4l-.2.4,5.5,3.1.2-.5c.3-.5.6-1.3,1-2.1,2.4-5.3,7.3-16.2,12.4-16.2,2.8,0,3.2,3.4,3.2,5.5,0,3-.9,7.6-2.4,14.7L147.7,223c-2.1,9.2-3.1,10.7-12.3,10.7H135l-1.3,7h38.9l1.6-7h-.6c-12,0-14-.1-14-4.7a26.37,26.37,0,0,1,1-5.1l6.9-29.1c3.7,7.8,8.3,14.1,22.2,14.1,23.9,0,36.6-26.9,36.6-46.3-.1-15.9-8.1-31.8-26.1-31.8"/><path class="cls-1" d="M408.3,62.6V89.3c0,13.5,9,22.8,27.6,22.8,20.2,0,26.2-10.9,26.2-24.7V62.3c0-6.7.9-10.1,8.4-10.1V48H447.7v4.2c5.7,0,9.8,1.7,9.8,10.1V87.4c0,2.5-.2,6.7-1.3,9.4-2.4,5.9-7.3,9.6-16.8,9.6-10.2,0-15.2-6-15.2-17.2V58.6c0-3.8,1.6-6.4,7.6-6.4H434V48H399.3v4.2c7.1,0,9,.5,9,10.4"/><path class="cls-1" d="M477.3,76.3v25c0,4.6-1.8,5.9-6.1,5.9v3.6h24.1v-3.6c-2.9,0-5.3-.5-5.3-4.3V86.6c0-8.5,4.8-13.7,9.4-13.7,2.8,0,5.3,1.8,5.3,7.3V103c0,3.7-2.6,4.2-5.4,4.2v3.6H523v-3.6c-3.7,0-5.6-1-5.6-4.5V81.5c0-9.5-4.5-15.1-13.5-15.1-9.7,0-13.6,9.8-14.6,9.8-.5,0-.6-.6-.6-1.9V67.9c0-.8-.1-1.5-.8-1.5-1.3,0-9.5,1.2-17.3,1.4v3.6c4.2-.1,6.7.4,6.7,4.9"/><path class="cls-1" d="M538.7,57a7,7,0,1,0-7.1-7,7.11,7.11,0,0,0,7.1,7"/><path class="cls-1" d="M552.7,107.2c-3.8,0-6.1,0-6.1-4.7V68.9c0-2.2-.4-2.6-1.4-2.6-2.7,0-8.3,1-17.9,1.4v3.6c4,0,6.6.6,6.6,6.4v24.8c0,4.7-2.3,4.7-6.6,4.7v3.6h25.3v-3.6Z"/><path class="cls-1" d="M559.8,77.2l14.6,34.1h7.7L596,77.2c1.9-4.8,3.2-5.6,5.4-5.9V67.7h-16v3.6c3.6,0,5.8,1.4,5.8,4.7,0,3.1-1.7,7.7-3,10.9L584,97.3c-.4.9-.6,1.8-1,1.8s-.5-.5-1.1-1.8l-5.5-12.7c-2-4.7-3.2-7.7-3.2-9.8,0-3.2,2.9-3.6,5.5-3.6V67.6H553.5v3.6c3.7.1,4.2,1.1,6.3,6"/><path class="cls-1" d="M616.2,82.9c0-9,2.5-13,6.2-13,4.2,0,6.2,4.4,6.2,12.6v1.8c0,.6-.2.9-.7.9H616.2Zm6.7,29.2c9.4,0,16.7-5.5,19.5-14.8h-4.1c-1.9,4.7-5.2,9.2-11.7,9.2-5.1,0-10.4-4.1-10.4-16V88.8h26c0-12.9-6.8-22.5-19-22.5-11.2,0-21.1,9.6-21.1,22.9s9.9,22.9,20.8,22.9"/><path class="cls-1" d="M674.2,107.2c-6,0-9.2,0-9.2-5.6v-14c0-9,3.4-12.9,4.8-12.9s.3,6.8,6.5,6.8c4.2,0,6.2-3.4,6.2-7.2,0-4.7-2.5-7.9-7.2-7.9-7.3,0-10.2,9.8-11.6,9.8-.5,0-.5-.6-.5-1V67.7c0-.8-.2-1.3-.8-1.3-1,0-11.1,1.2-17.7,1.4v3.6c5,0,7.5.6,7.5,5v25.2c0,5.6-3.4,5.6-7.8,5.6v3.6H674v-3.6Z"/><path class="cls-1" d="M711.4,102.9c0,3.4-2.9,5.6-7.2,5.6a13.38,13.38,0,0,1-13-11.4h-3.5c.1,2.5.3,4.9.3,7.3s-.2,5-.3,7.4H691a2.71,2.71,0,0,1,2.5-2.3c2,0,5.4,2.5,11.1,2.5,8.8,0,15.3-6.1,15.3-14,0-16.7-24.5-14.6-24.5-22.7,0-3.8,2.8-5.5,6.6-5.5,6.3,0,10.1,3.5,12,9.4h3c-.1-2.1-.3-4.2-.3-6.3s.2-4.2.3-6.3h-2.8c-.5,1.2-1.6,1.6-3,1.6-2.4,0-3.7-1.8-9.1-1.8-7.8,0-15.1,4.4-15.1,12.3-.1,16.7,24.4,13.2,24.4,24.2"/><path class="cls-1" d="M749,107.2c-3.8,0-6.1,0-6.1-4.7V68.9c0-2.2-.4-2.6-1.4-2.6-2.7,0-8.3,1-17.9,1.4v3.6c4,0,6.6.6,6.6,6.4v24.8c0,4.7-2.3,4.7-6.6,4.7v3.6H749Z"/><path class="cls-1" d="M735,57a7,7,0,1,0-7.1-7,7.24,7.24,0,0,0,7.1,7"/><path class="cls-1" d="M757,99.7c0,8.4,3.6,12.4,11.1,12.4,7.2,0,11.3-3.9,13.9-10.3l-3-1.4c-1.3,2.2-2.9,5-5.8,5-1.7,0-3.5-.8-3.5-4.9V71.3H780V67.7H769.6V49.9h-3.4c-2.9,7.9-7.2,15.9-16.3,18.4v3h7V99.7Z"/><path class="cls-1" d="M804.7,106.5c-3.8,0-5.5-2.7-5.5-7.6,0-8.5,10.2-10.4,13.7-10.4.5,0,.5.5.5,4.1,0,9.3-3.5,13.9-8.7,13.9m-18.1-5.1c0,6.1,4.3,10.7,11.9,10.7s13.4-5,15.1-6.4c.9,1.6,2.8,6.4,9.2,6.4,3.5,0,7.8-1.7,7.8-6,0-.5-.3-.9-.6-.9a13.88,13.88,0,0,1-1.7.3c-1.4,0-2.2-.7-2.2-2.7V85.5c0-12.6-5.6-19.2-21.5-19.2-8.9,0-16.1,3.5-16.1,10.1,0,3.6,2.3,6.9,6.2,6.9,4.6,0,6.4-2.8,6.4-5.9,0-4.2-2.7-3.6-2.7-5.5,0-1.1,1.3-2,4.9-2,6.4,0,9.9,2.8,9.9,9.6v6.1c-9.4.5-26.6,2.9-26.6,15.8"/><path class="cls-1" d="M838.8,99.7c0,8.4,3.6,12.4,11.1,12.4,7.2,0,11.3-3.9,13.9-10.3l-3-1.4c-1.3,2.2-2.8,5-5.8,5-1.7,0-3.5-.8-3.5-4.9V71.3h10.4V67.7H851.5V49.9h-3.4c-2.9,7.9-7.2,15.9-16.2,18.4v3h7V99.7Z"/><path class="cls-1" d="M425.1,154.7c0-4.6,1.9-6.2,5.7-6.2,7.4,0,9.7,5.1,9.7,11.7,0,10.5-3.8,13.2-13.9,13.2-1.2,0-1.6-.3-1.6-1V154.7Zm10.4,48.4h-1.8c-6.5,0-8.6-.4-8.6-5.1V178.4c0-.7.4-1,1.6-1h5.8c11.3,0,25.6-2.9,25.6-16.6,0-9.6-6.7-16.2-24-16.2H401v4.2c5.5,0,8.3.3,8.3,6.2v43c0,2.9-1.5,5.1-5.7,5.1H401v4.2h34.6v-4.2Z"/><path class="cls-1" d="M481.3,205.1c-4.7,0-8.1-2.4-8.1-19.3,0-17.2,4-19.4,8.1-19.4s8.1,2.2,8.1,19.4c-.1,16.9-3.5,19.3-8.1,19.3m0-42.2a22.5,22.5,0,0,0-22.2,22.9c0,13.2,9.9,22.8,22.2,22.8s22.2-9.6,22.2-22.8a22.5,22.5,0,0,0-22.2-22.9"/><path class="cls-1" d="M506.5,164.3v3.6c3.2,0,5.6.6,5.6,5v25.2c0,5.2-2.6,5.6-5.6,5.6v3.6h23.8v-3.6c-4.1,0-5.5-1-5.5-5.6V184.9c0-8.2,3.7-15.4,8.4-15.4,3.8,0,6,2.7,6,10.7v17.9c0,5.2-2.6,5.6-5.4,5.6v3.6h23.6v-3.6c-4.1,0-5.5-1-5.5-5.6V184.9c0-8.2,3.7-15.4,8.4-15.4,3.8,0,6,2.7,6,10.7v17.9c0,5.2-2.6,5.6-5.4,5.6v3.6h23.6v-3.6c-4.1,0-5.5-1-5.5-5.6V178.8c0-10.1-5.1-16-13.3-16-11.1,0-13.1,10-14.2,10s-1.4-10-12.9-10c-10,0-13.5,9.8-14.7,9.8-.6,0-.6-.9-.6-2.5V164c0-.8-.2-1.3-.8-1.3-1.7.2-9.7,1.2-16,1.6"/><path class="cls-1" d="M612.6,168.5c6.2,0,7.9,5,7.9,17.7,0,10.7-2.5,16.9-8.1,16.9s-8.1-6.9-8.1-16.9c0-8.2,1.1-17.7,8.3-17.7m-27.5-.7c4.1,0,6.6.6,6.6,5v44c0,3.9-3.6,4.8-6.6,4.8v3.6h28.5v-3.6c-6.6,0-9.3-.4-9.3-4.6V204c0-.6.2-1.1.6-1.1.9,0,3,5.8,11.6,5.8,11.6,0,18.1-10.4,18.1-23.8,0-13.9-8-22-17.9-22-9.4,0-12.7,7.7-13.6,7.7-.3,0-.5-.5-.5-1.9v-4.5c0-.6-.2-1.3-.8-1.3-1,0-10.7,1.2-16.8,1.4v3.5Z"/><path class="cls-1" d="M654.7,179.5c0-9,2.5-13,6.2-13,4.2,0,6.2,4.4,6.2,12.6v1.8c0,.6-.2.9-.7.9H654.7Zm26.2,14.4h-4.1c-1.9,4.7-5.2,9.2-11.7,9.2-5.1,0-10.4-4.1-10.4-16v-1.7h26c0-12.9-6.8-22.5-19-22.5-11.2,0-21.1,9.6-21.1,22.9s9.9,22.8,20.8,22.8c9.3.1,16.7-5.4,19.5-14.7"/><path class="cls-1" d="M735.3,203.7c-4.3,0-5.7-1.8-5.7-5.9V164.5c0-1.3-.3-1.6-1.4-1.6s-8.1,1.1-17.2,1.4v3.6c3.1,0,6,.6,6,5v13c0,10.2-5,16.1-10.1,16.1-3.7,0-4.9-3.3-4.9-7.6V164.5c0-1.3-.3-1.6-1.4-1.6s-8.1,1.1-17.2,1.4v3.6c3.1,0,6,.6,6,5v20.2c0,11.3,5.1,15.6,12.2,15.6,11.4,0,15-10.2,16.4-10.2a.82.82,0,0,1,.8.9v8.2c0,.6.2,1.1,1,1.1,1.2,0,8.4-1.4,15.6-1.4v-3.6Z"/><path class="cls-1" d="M798.4,148.5c10.2,0,17.6,4.9,18.7,15.2h4.2l-.4-19.2H764v4.2c5.2,0,8,.3,8,6.2v43c0,2.9-1.5,5-5.7,5H764v4.2h34v-4.2h-1.6c-6.5,0-8.6-.4-8.6-5V178c0-1.2.5-1.4,2.2-1.4,8.4,0,11.1,3.4,11.6,11.8h4V161.2h-4.2c0,9.5-4.7,11.4-12.3,11.4-1.1,0-1.4-.4-1.4-1.6V153c.3-3.5,1.4-4.5,10.7-4.5"/><path class="cls-1" d="M841.5,203.1c-3.8,0-5.5-2.7-5.5-7.6,0-8.5,10.2-10.4,13.7-10.4.5,0,.5.6.5,4.1,0,9.3-3.5,13.9-8.7,13.9m25.3-1.3a13.88,13.88,0,0,1-1.7.3c-1.4,0-2.2-.7-2.2-2.7V182.1c0-12.6-5.6-19.2-21.5-19.2-8.9,0-16.1,3.5-16.1,10.1,0,3.6,2.3,6.9,6.2,6.9,4.6,0,6.4-2.8,6.4-5.9,0-4.2-2.7-3.6-2.7-5.5,0-1.1,1.3-2,5-2,6.4,0,9.9,2.8,9.9,9.6v6.1c-9.5.5-26.8,2.9-26.8,15.8,0,6.1,4.3,10.7,11.9,10.7s13.4-5,15.1-6.4c.9,1.6,2.8,6.4,9.2,6.4,3.5,0,7.8-1.7,7.8-6,.1-.5-.2-.9-.5-.9"/><path class="cls-1" d="M896.8,205.1c-5.8,0-8.7-7.2-8.7-18.4,0-12.3,2.9-18.2,8.7-18.2,4.8,0,7.5,3.5,7.5,19.7.1,11.7-2.5,16.9-7.5,16.9m4-42.2c-9.1,0-11,6.8-12,6.8-.6,0-.6-.5-.6-2.7V140.6c0-.7-.4-1-.8-1-1.6,0-8.6,1.5-18.6,1.8V145h.8c4.3,0,6,1.3,6,6.2v31.3c0,10.6,0,19.2-.4,26.2h3.5c.8-1.4,4.6-7.4,5.6-7.4,1.3,0,5.2,7.4,13.3,7.4,12.9,0,21-10.5,21-23.2-.1-11.6-6.4-22.6-17.8-22.6"/><path class="cls-1" d="M952.2,162.9c-7.3,0-10.2,9.8-11.6,9.8-.5,0-.5-.6-.5-1v-7.5c0-.8-.2-1.3-.8-1.3-1,0-11.1,1.2-17.7,1.4v3.6c5,0,7.5.6,7.5,5v25.2c0,5.6-3.4,5.6-7.8,5.6v3.6H951v-3.6c-6,0-9.2,0-9.2-5.6v-14c0-9,3.4-12.9,4.8-12.9s.3,6.8,6.5,6.8c4.2,0,6.2-3.4,6.2-7.2.1-4.7-2.4-7.9-7.1-7.9"/><path class="cls-1" d="M980.8,203.1c-3.8,0-5.5-2.7-5.5-7.6,0-8.5,10.2-10.4,13.7-10.4.5,0,.5.6.5,4.1-.1,9.3-3.6,13.9-8.7,13.9m25.2-1.3a13.88,13.88,0,0,1-1.7.3c-1.4,0-2.2-.7-2.2-2.7V182.1c0-12.6-5.6-19.2-21.5-19.2-8.9,0-16.1,3.5-16.1,10.1,0,3.6,2.3,6.9,6.2,6.9,4.6,0,6.4-2.8,6.4-5.9,0-4.2-2.7-3.6-2.7-5.5,0-1.1,1.3-2,5-2,6.4,0,9.9,2.8,9.9,9.6v6.1c-9.5.5-26.8,2.9-26.8,15.8,0,6.1,4.3,10.7,11.9,10.7s13.4-5,15.1-6.4c.9,1.6,2.8,6.4,9.2,6.4,3.5,0,7.8-1.7,7.8-6a.6.6,0,0,0-.5-.9"/><path class="cls-1" d="M432.9,268.2h-7.1l4.1-18c1-4.2,1.7-5,10.6-5,11.5,0,16.6,2.3,16.6,9.9.1,13-15.2,13.1-24.2,13.1M453.4,285c0,10-6,14.7-23.9,14.7-8.5,0-9.3-1.4-9.3-4.2a17.37,17.37,0,0,1,.5-3.4l4.2-19.7h4.6c12.3,0,23.9.4,23.9,12.6m12.4-30.7c0-10.4-9.2-13.2-20.6-13.2H413.6l-.9,4.1h1.8c5,0,7.1.7,7.1,3.3a23.26,23.26,0,0,1-.7,4.7L412,294c-.8,4-1.7,5.7-7.3,5.7h-2.4l-.9,4.1h34c20,0,27.5-9.9,27.5-19.7,0-10.3-10.4-12.7-15-13.4v-.2c4.9-1,17.9-2.6,17.9-16.2"/><path class="cls-1" d="M487.2,300.8c-5.5,0-7.2-5-7.2-9.7,0-7.7,5.6-27.5,15.1-27.5,6.1,0,6.9,5.6,6.9,9.5,0,7.4-5.1,27.7-14.8,27.7m19.3-.8c-1.5,0-2-1.1-2-2.9,0-5,5.4-25.5,8.7-36.2h-6.9l-1.8,5.6-.2.2c-.7-1.9-2.8-7.2-9.9-7.2-13.8,0-21.8,18.3-21.8,30.1,0,8.1,3.6,15.7,11.9,15.7,7,0,11.9-6.4,13.5-8.2l.2.2c.2,3,.6,8,5.9,8,6.2,0,11.1-8,13.3-12.9l-2.8-1.9c-1,2.2-5.1,9.5-8.1,9.5"/><path class="cls-1" d="M551.9,259.4c-6.1,0-11.2,9.3-13.4,13.1l-.2-.2a23.67,23.67,0,0,0,.6-5.5c0-4.3-2-7.4-5.9-7.4-6.7,0-10.6,9.2-12.8,14.3l2.8,1.6c1.1-2.2,4.5-11.1,8.3-11.1,1.2,0,2,1.2,2,3.2,0,3.9-2.3,14-4.8,22.6l-4,13.9h7c6.6-27.2,14.1-38.5,16.8-38.5.7,0,1.2.4,1.2.9,0,1-.5,1.1-.5,2.7,0,2,1.8,3.3,4,3.3,2.8,0,5-1.7,5-6.2,0-3.7-2.1-6.7-6.1-6.7"/><path class="cls-1" d="M584.9,259.4c-14.8,0-24.9,13.4-24.9,27.4,0,8.2,4.5,18.4,18.5,18.4,7.1,0,13.4-4.4,17.7-9.7l-2.7-2.9c-3.2,4.5-8.4,8.2-14.1,8.2-7.8,0-10.8-6.3-10.8-13.5,0-13.8,7.3-24.3,16.1-24.3,3.6,0,6,1.3,6,2.6,0,1.8-3.4,1.9-3.4,6.2,0,2.6,2,4.3,4.8,4.3a6.33,6.33,0,0,0,6.3-6.6c0-7-7.3-10.1-13.5-10.1"/><path class="cls-1" d="M627.8,263c3.4,0,5.9,2,5.9,5.9,0,8.9-12.7,13.9-21.6,15.2l-.2-.2c.4-7,5.9-20.9,15.9-20.9m13.9,5.9c0-7.2-6.5-9.5-12.4-9.5-15,0-26.2,15.2-26.2,29.4,0,9.5,5.1,16.4,15.7,16.4s16.9-6.4,20.8-10l-2.2-2.8c-5.1,5-10.8,8.4-16.3,8.4-6.8,0-9.9-4.4-9.9-10.8a19.48,19.48,0,0,1,.2-2.5c19.4-4,30.3-8.7,30.3-18.6"/><path class="cls-1" d="M657.4,300c-1.5,0-2.5-1.2-2.5-3.7,0-1.9.6-3.8,1.4-6.8L669,238.6l-.7-1a129.74,129.74,0,0,1-16.4,1.3l-.8,3.6h2.1c4.4,0,6,.6,6,3.5,0,2.3-.9,6.4-2,11l-6.5,26.5c-1.5,5.9-2.6,10.1-2.6,13.2,0,4.3,2.2,8.1,7.7,8.1,6.9,0,12.2-9.4,14.6-14.9l-3-1.4c-1.7,3.2-6,11.5-10,11.5"/><path class="cls-1" d="M693.6,301.7c-7.2,0-9.7-5.7-9.7-11.9,0-9.2,4.6-26.7,15.8-26.7,7.7,0,10.5,5.3,10.5,12.6-.1,7.1-4.2,26-16.6,26m6.7-42.3c-14.5,0-24.5,12.9-24.5,27.9,0,9.7,5.7,17.9,17.6,17.9,15,0,24.8-13.7,24.8-26.9-.1-10.8-6.8-18.9-17.9-18.9"/><path class="cls-1" d="M762.7,300a2.76,2.76,0,0,1-2.7-3c0-2.8,1.5-6.1,4.5-13.8,1.7-4.1,3.7-9.2,3.7-13.8,0-6.1-3.8-10-9.7-10-7.9,0-13.6,8.2-16.6,13.1l-.2-.2a23.67,23.67,0,0,0,.6-5.5c0-4.3-2-7.4-5.9-7.4-6.7,0-10.6,9.2-12.8,14.3l2.7,1.6c1.1-2.2,4.5-11.1,8.3-11.1,1.2,0,2,1.2,2,3.2,0,3.9-2.3,14-4.8,22.6l-4,13.9h7.3l4.1-15.3c4-14.7,9.7-24.3,17.7-24.3,2.2,0,4.2,1.5,4.2,4.6s-1.2,5.7-3.6,11.6c-2.8,6.9-4.6,11.3-4.6,15.6,0,5,2.1,8.8,7.1,8.8,7.4,0,11.9-8,15.1-14l-3.2-1.7c-1.4,3-5.4,10.8-9.2,10.8"/><path class="cls-1" d="M795.5,300.8c-5.5,0-7.2-5-7.2-9.7,0-7.7,5.6-27.5,15-27.5,6.1,0,6.9,5.6,6.9,9.5,0,7.4-5.1,27.7-14.7,27.7m19.2-.8c-1.5,0-2-1.1-2-2.9,0-5,5.4-25.5,8.7-36.2h-6.9l-1.8,5.6-.2.2c-.7-1.9-2.9-7.2-9.9-7.2-13.8,0-21.8,18.3-21.8,30.1,0,8.1,3.6,15.7,11.9,15.7,7,0,11.9-6.4,13.5-8.2l.2.2c.2,3,.6,8,5.9,8,6.2,0,11.1-8,13.3-12.9l-2.8-1.9c-1,2.2-5,9.5-8.1,9.5"/></svg>